<!-- <?xml version="1.0" standalone="no"?><!DOCTYPE svg PUBLIC "-//W3C//DTD SVG 1.1//EN" "http://www.w3.org/Graphics/SVG/1.1/DTD/svg11.dtd"><svg t="1628645911792" class="icon" viewBox="0 0 1024 1024" version="1.1" xmlns="http://www.w3.org/2000/svg" p-id="3543" xmlns:xlink="http://www.w3.org/1999/xlink" width="200" height="200"><defs><style type="text/css"></style></defs><path d="M562.0436136 3.190031l1e-8 861.30841101L482.29283461 864.49844201 482.29283461 3.190031l79.75077899 0z" fill="#707070" p-id="3544"></path><path d="M641.79439262 823.02803698L523.76323961 1023.99999999l-121.22118402-200.97196301 239.25233703 0z" fill="#707070" p-id="3545"></path></svg> -->
<?xml version="1.0" standalone="no"?><!DOCTYPE svg PUBLIC "-//W3C//DTD SVG 1.1//EN" "http://www.w3.org/Graphics/SVG/1.1/DTD/svg11.dtd"><svg class="icon" width="200px" height="200.00px" viewBox="0 0 1024 1024" version="1.1" xmlns="http://www.w3.org/2000/svg"><path fill="#333333" d="M505.941333 742.826667a30.506667 30.506667 0 0 0 16.213334-26.752v-173.482667h342.528A30.976 30.976 0 0 0 896 512a30.976 30.976 0 0 0-31.317333-30.592h-342.528V307.925333a30.378667 30.378667 0 0 0-16.213334-26.752 31.914667 31.914667 0 0 0-31.786666 0.853334l-331.52 204.074666A30.464 30.464 0 0 0 128 512c0 10.538667 5.546667 20.266667 14.634667 25.898667l331.52 204.074666a32.170667 32.170667 0 0 0 31.786666 0.853334z"  /></svg>